<svg id="Warstwa_1" data-name="Warstwa 1" xmlns="http://www.w3.org/2000/svg" viewBox="0 0 194.29 111.18"><defs><style>.cls-1{fill:#fff;}</style></defs><title>quickspot</title><path class="cls-1" d="M671.79,127.31a19.8,19.8,0,0,1,5.55-7,16,16,0,0,1,7.52-3.37,12.39,12.39,0,0,1,5.56.24,8.83,8.83,0,0,1,4,2.47l0.06-3.85,10-1.57-0.94,49.65-10,1.57,0.38-20.24a16.46,16.46,0,0,1-4.21,4,13.78,13.78,0,0,1-5.58,2.14,12.31,12.31,0,0,1-6.56-.66,11.66,11.66,0,0,1-5.09-3.92,14.57,14.57,0,0,1-2.66-6.64,19,19,0,0,1-.21-3.63A21.89,21.89,0,0,1,671.79,127.31ZM694,130.73a6,6,0,0,0-2.45-4.3,6.06,6.06,0,0,0-4.44-.93,8.07,8.07,0,0,0-3.44,1.47A9.26,9.26,0,0,0,681,130.2a10.32,10.32,0,0,0-1.15,4.74,10,10,0,0,0,.11,1.85,5.85,5.85,0,0,0,6.9,5.29,8,8,0,0,0,3.43-1.47,9.26,9.26,0,0,0,2.77-3.23,10.35,10.35,0,0,0,1.15-4.75A10.94,10.94,0,0,0,694,130.73Z" transform="translate(-669.59 -86.14)"/><path class="cls-1" d="M744,108.07l-0.63,33.62-10,1.57,0.07-4.58a14.81,14.81,0,0,1-4.17,4.23,13.89,13.89,0,0,1-5.74,2.25,10.65,10.65,0,0,1-8.18-1.57q-3.25-2.34-4-7.33a18.24,18.24,0,0,1-.24-3.45l0.41-19.65,10-1.56-0.33,18.25a10,10,0,0,0,.11,1.85,5,5,0,0,0,2,3.57,5.39,5.39,0,0,0,4,.72,7.21,7.21,0,0,0,4.52-2.42,8.33,8.33,0,0,0,1.86-5.19L734,109.64Z" transform="translate(-669.59 -86.14)"/><path class="cls-1" d="M752.47,102a4.19,4.19,0,0,1-1.88-3,6,6,0,0,1,1.34-4.84,7.21,7.21,0,0,1,4.69-2.66,5.26,5.26,0,0,1,3.89.68,4.31,4.31,0,0,1,1.86,3A5.91,5.91,0,0,1,761,100a7.13,7.13,0,0,1-4.63,2.65A5.36,5.36,0,0,1,752.47,102Zm8.79,3.4L760.63,139l-10,1.57,0.63-33.62Z" transform="translate(-669.59 -86.14)"/><path class="cls-1" d="M768.52,111.87a19,19,0,0,1,5.91-6.93,19.7,19.7,0,0,1,8.56-3.44q6.16-1,10.24,1.7t5.23,8.49l-10.67,1.67q-1.23-3.65-5.16-3a6.35,6.35,0,0,0-4.41,2.88,11.94,11.94,0,0,0-1.74,6.55,13.87,13.87,0,0,0,.17,2.62,6.27,6.27,0,0,0,2,4,4.5,4.5,0,0,0,3.75.92,6.28,6.28,0,0,0,5.22-4.66L798.3,121a19.62,19.62,0,0,1-5.62,10.13,18.84,18.84,0,0,1-10.33,5q-6.33,1-10.6-1.92t-5.21-8.95a22.24,22.24,0,0,1-.24-3.87A21.33,21.33,0,0,1,768.52,111.87Z" transform="translate(-669.59 -86.14)"/><path class="cls-1" d="M822.4,112.63l13.4,14.6-12.43,1.95-9.7-12.48-0.27,14-10,1.57,0.89-44.59,10-1.57-0.48,24.58,10.12-15.16,12.37-1.94Z" transform="translate(-669.59 -86.14)"/><path class="cls-1" d="M741.67,184.61a11.64,11.64,0,0,1-5.37-2.67,8,8,0,0,1-2.55-4.8q-0.06-.41-0.11-1.48l9.67-1.51a3.44,3.44,0,0,0,1.54,2.73,5,5,0,0,0,3.6.55,6.26,6.26,0,0,0,3-1.19,2.2,2.2,0,0,0-.71-3.94,30.76,30.76,0,0,0-4.65-1.1,46.82,46.82,0,0,1-5.63-1.25,10.38,10.38,0,0,1-4.13-2.39,7.71,7.71,0,0,1-2.29-4.63,8.66,8.66,0,0,1,.89-5.46,11.19,11.19,0,0,1,4.21-4.35,18.56,18.56,0,0,1,6.92-2.4,17.52,17.52,0,0,1,7.24.22,11,11,0,0,1,5.21,2.94,9.1,9.1,0,0,1,2.47,5l0.08,0.89L752,161.19a3.33,3.33,0,0,0-1.5-2.65A4.89,4.89,0,0,0,747,158a5.09,5.09,0,0,0-2.68,1.14,2.22,2.22,0,0,0-.78,2.1,2.5,2.5,0,0,0,1.77,1.92,26.51,26.51,0,0,0,4.78,1.2,43.06,43.06,0,0,1,5.57,1.26,10.72,10.72,0,0,1,4,2.31,7.17,7.17,0,0,1,2.22,4.37,8.35,8.35,0,0,1-1.05,5.75,12,12,0,0,1-4.67,4.31,22.29,22.29,0,0,1-7.35,2.38A18.79,18.79,0,0,1,741.67,184.61Z" transform="translate(-669.59 -86.14)"/><path class="cls-1" d="M782.55,146.44a14.18,14.18,0,0,1,6.08-2.39,11.31,11.31,0,0,1,9.07,2.13q3.8,3,4.72,8.87a24.3,24.3,0,0,1,.26,4,23,23,0,0,1-2.07,9.42,18.88,18.88,0,0,1-5.29,6.9,15.42,15.42,0,0,1-7.36,3.28,11.12,11.12,0,0,1-6-.51,8.91,8.91,0,0,1-4-3.09l-0.42,20.73-10,1.57,0.94-49.65,10-1.57-0.1,4.76A14.26,14.26,0,0,1,782.55,146.44Zm9.89,12.33a6.19,6.19,0,0,0-2.39-4.31,5.89,5.89,0,0,0-4.51-1,8.16,8.16,0,0,0-5.11,3,10.21,10.21,0,0,0-2.24,6.42,12,12,0,0,0,.13,2,6.18,6.18,0,0,0,2.35,4.26,5.78,5.78,0,0,0,4.48,1,8.21,8.21,0,0,0,5.14-3.06,10.28,10.28,0,0,0,2.26-6.45A10.6,10.6,0,0,0,792.44,158.76Z" transform="translate(-669.59 -86.14)"/><path class="cls-1" d="M856.86,155.83a4,4,0,0,0,.06.77,1.82,1.82,0,0,0,.85,1.43,3.43,3.43,0,0,0,2.1.15l3.58-.56-0.19,8.74-5.1.8q-9.85,1.54-11.14-6.73a21,21,0,0,1-.19-3.15l0.31-13.38-4,.62L843.3,136l4-.62,0.16-8.19,10-1.57-0.16,8.2,6.57-1-0.16,8.56-6.57,1Z" transform="translate(-669.59 -86.14)"/><path class="cls-1" d="M826.48,157.35a5.51,5.51,0,0,1-3.55,2,4.09,4.09,0,0,1-3-.52,3.21,3.21,0,0,1-1.44-2.28,4.58,4.58,0,0,1,1-3.71,5.51,5.51,0,0,1,3.59-2,4,4,0,0,1,3,.52,3.32,3.32,0,0,1,1.42,2.34A4.54,4.54,0,0,1,826.48,157.35Z" transform="translate(-669.59 -86.14)"/><path class="cls-1" d="M839.93,150.13a14.19,14.19,0,0,0-3-6.93,12.62,12.62,0,0,0-5.89-4,16.1,16.1,0,0,0-7.8-.55,20.89,20.89,0,0,0-9.91,4.22,19.27,19.27,0,0,0-6.15,8.32,20.24,20.24,0,0,0-1.05,10.56,14.31,14.31,0,0,0,2.92,6.93,12.23,12.23,0,0,0,5.82,4,15.93,15.93,0,0,0,7.15.62l-0.15-.18c-1.76-2.29-3.23-4.85-4.78-7.29-3.08-4.84-5.47-10.28-1.4-15.38a11.55,11.55,0,0,1,7.48-4.24,8.48,8.48,0,0,1,6.22,1.09c4.68,3.17,3.29,10.06,1,14.22a129.56,129.56,0,0,1-7,11c-0.16.23-.29,0.48-0.42,0.67a21.11,21.11,0,0,0,9.59-4.13,19.34,19.34,0,0,0,6.22-8.27A20.05,20.05,0,0,0,839.93,150.13Z" transform="translate(-669.59 -86.14)"/><path class="cls-1" d="M826.48,157.35a4.54,4.54,0,0,0,1-3.66,3.32,3.32,0,0,0-1.42-2.34,4,4,0,0,0-3-.52,5.51,5.51,0,0,0-3.59,2,4.58,4.58,0,0,0-1,3.71,3.21,3.21,0,0,0,1.44,2.28,4.09,4.09,0,0,0,3,.52A5.51,5.51,0,0,0,826.48,157.35Z" transform="translate(-669.59 -86.14)"/></svg>